<svg width="228" height="30" viewBox="0 0 228 30" fill="none" xmlns="http://www.w3.org/2000/svg">
<path d="M45.0303 3.59004C45.8653 3.59004 46.5769 3.60902 47.1651 3.64697C47.7724 3.68492 48.3227 3.75134 48.8161 3.84622C49.3284 3.92212 49.8502 4.02649 50.3816 4.15933L50.1254 6.06643C49.5561 6.0095 49.0248 5.96206 48.5314 5.9241C48.057 5.88615 47.5446 5.85769 46.9943 5.83871C46.444 5.81974 45.7894 5.81025 45.0303 5.81025C43.7589 5.81025 42.7532 6.05694 42.0131 6.55032C41.273 7.04369 40.7417 7.86916 40.4191 9.0267C40.1155 10.1842 39.9637 11.7593 39.9637 13.7518C39.9637 15.7442 40.1155 17.3193 40.4191 18.4768C40.7417 19.6343 41.273 20.4598 42.0131 20.9532C42.7532 21.4466 43.7589 21.6933 45.0303 21.6933C46.2448 21.6933 47.26 21.6743 48.076 21.6363C48.9109 21.5794 49.7269 21.494 50.5239 21.3801L50.7801 23.2588C49.9641 23.4865 49.1197 23.6478 48.2468 23.7427C47.3928 23.8565 46.3207 23.9135 45.0303 23.9135C43.1517 23.9135 41.6431 23.5909 40.5045 22.9457C39.3849 22.2815 38.5689 21.2094 38.0566 19.7292C37.5632 18.2491 37.3165 16.2566 37.3165 13.7518C37.3165 11.2469 37.5632 9.25441 38.0566 7.77428C38.5689 6.29414 39.3849 5.23148 40.5045 4.58629C41.6431 3.92212 43.1517 3.59004 45.0303 3.59004Z" fill="#09152B"/>
<path d="M56.3679 9.70984V19.4446C56.349 20.3175 56.5103 20.9342 56.8518 21.2948C57.1934 21.6553 57.7627 21.8356 58.5597 21.8356C59.3377 21.8356 60.1062 21.6553 60.8653 21.2948C61.6433 20.9152 62.5731 20.3744 63.6548 19.6723L63.9679 21.3517C62.8862 22.2056 61.8331 22.8508 60.8084 23.2872C59.8026 23.7237 58.7779 23.9419 57.7342 23.9419C55.2104 23.9419 53.9485 22.6705 53.9485 20.1277V9.70984H56.3679ZM65.8181 9.70984V23.5719H63.8825L63.6548 20.9532L63.3986 20.5262V9.70984H65.8181Z" fill="#09152B"/>
<path d="M74.8786 9.36827C75.4858 9.36827 76.131 9.38725 76.8141 9.4252C77.4973 9.46315 78.1709 9.51059 78.8351 9.56752C79.5182 9.62445 80.1444 9.70035 80.7137 9.79523L80.5145 11.56C79.6416 11.5221 78.7592 11.4936 77.8673 11.4746C76.9944 11.4367 76.1215 11.4177 75.2486 11.4177C74.3947 11.3987 73.721 11.4177 73.2276 11.4746C72.7343 11.5315 72.3737 11.6834 72.146 11.93C71.9373 12.1767 71.8329 12.5942 71.8329 13.1825C71.8329 13.9036 72.0037 14.378 72.3452 14.6057C72.6868 14.8334 73.1897 15.0232 73.8538 15.175L77.8958 16.0858C78.9964 16.3515 79.8029 16.7595 80.3152 17.3098C80.8465 17.8601 81.1122 18.7235 81.1122 19.9C81.1122 21.0386 80.894 21.8925 80.4575 22.4618C80.0401 23.0311 79.3949 23.4106 78.522 23.6004C77.6491 23.7901 76.539 23.885 75.1917 23.885C74.6983 23.885 73.9582 23.866 72.9715 23.8281C72.0037 23.7901 70.9315 23.6763 69.755 23.4865L69.9258 21.7217C70.3812 21.7407 70.8651 21.7692 71.3775 21.8071C71.8898 21.8261 72.4211 21.8356 72.9715 21.8356C73.5407 21.8356 74.1195 21.8356 74.7078 21.8356C75.7515 21.8356 76.5674 21.7881 77.1557 21.6933C77.7439 21.5984 78.1614 21.4181 78.4081 21.1524C78.6548 20.8678 78.7781 20.4503 78.7781 19.9C78.7781 19.2169 78.5789 18.7614 78.1804 18.5337C77.7819 18.306 77.2506 18.1163 76.5864 17.9644L72.6014 17.0536C71.8424 16.8638 71.2351 16.6171 70.7797 16.3135C70.3243 15.9909 69.9922 15.5829 69.7835 15.0896C69.5747 14.5772 69.4704 13.9415 69.4704 13.1825C69.4704 12.1008 69.6601 11.2849 70.0396 10.7345C70.4192 10.1842 71.0074 9.81421 71.8044 9.62445C72.6014 9.43469 73.6261 9.34929 74.8786 9.36827Z" fill="#09152B"/>
<path d="M88.1944 5.611V19.7577C88.1944 20.4219 88.3368 20.8963 88.6214 21.1809C88.906 21.4655 89.3899 21.6079 90.0731 21.6079H92.1794L92.4641 23.458C92.1605 23.5339 91.8094 23.6004 91.4109 23.6573C91.0124 23.7142 90.6234 23.7522 90.2439 23.7711C89.8643 23.8091 89.5607 23.8281 89.333 23.8281C88.1755 23.8281 87.2931 23.5055 86.6858 22.8603C86.0786 22.2151 85.775 21.2853 85.775 20.0708V5.611H88.1944ZM92.6064 9.70984V11.6169H83.2701V9.85216L86.0027 9.70984H92.6064Z" fill="#09152B"/>
<path d="M101.426 9.36827C103.02 9.36827 104.292 9.60547 105.24 10.0799C106.208 10.5543 106.901 11.3323 107.318 12.4139C107.736 13.4766 107.945 14.8903 107.945 16.6551C107.945 18.4199 107.736 19.8431 107.318 20.9247C106.901 21.9874 106.208 22.7559 105.24 23.2303C104.292 23.7047 103.02 23.9419 101.426 23.9419C99.8513 23.9419 98.5799 23.7047 97.6121 23.2303C96.6633 22.7559 95.9706 21.9874 95.5342 20.9247C95.1167 19.8431 94.908 18.4199 94.908 16.6551C94.908 14.8903 95.1167 13.4766 95.5342 12.4139C95.9706 11.3323 96.6633 10.5543 97.6121 10.0799C98.5799 9.60547 99.8513 9.36827 101.426 9.36827ZM101.426 11.4177C100.421 11.4177 99.6236 11.579 99.0353 11.9016C98.466 12.2052 98.058 12.7365 97.8113 13.4956C97.5646 14.2546 97.4413 15.3078 97.4413 16.6551C97.4413 18.0024 97.5646 19.0556 97.8113 19.8146C98.058 20.5737 98.466 21.1145 99.0353 21.4371C99.6236 21.7407 100.421 21.8925 101.426 21.8925C102.432 21.8925 103.229 21.7407 103.817 21.4371C104.406 21.1145 104.823 20.5737 105.07 19.8146C105.316 19.0556 105.44 18.0024 105.44 16.6551C105.44 15.3078 105.316 14.2546 105.07 13.4956C104.823 12.7365 104.406 12.2052 103.817 11.9016C103.229 11.579 102.432 11.4177 101.426 11.4177Z" fill="#09152B"/>
<path d="M128.62 9.36827C129.815 9.36827 130.726 9.69086 131.352 10.3361C131.998 10.9812 132.32 11.93 132.32 13.1825V23.5719H129.929V13.8656C129.91 13.0117 129.739 12.395 129.417 12.0154C129.094 11.6169 128.544 11.4177 127.766 11.4177C127.272 11.4177 126.798 11.5031 126.343 11.6739C125.906 11.8257 125.422 12.0724 124.891 12.4139C124.36 12.7555 123.714 13.2014 122.955 13.7518L122.813 12.0439C123.819 11.152 124.796 10.4879 125.745 10.0514C126.694 9.59598 127.652 9.36827 128.62 9.36827ZM113.733 9.70984L113.904 12.357L114.16 12.784V23.5719H111.741V9.70984H113.733ZM119.54 9.36827C120.716 9.36827 121.618 9.69086 122.244 10.3361C122.87 10.9623 123.193 11.9111 123.212 13.1825V23.5719H120.878V13.8656C120.878 12.9737 120.697 12.3475 120.337 11.987C119.976 11.6075 119.435 11.4177 118.714 11.4177C118.24 11.4177 117.775 11.4936 117.32 11.6454C116.883 11.7972 116.39 12.0439 115.839 12.3855C115.308 12.727 114.653 13.1825 113.875 13.7518L113.705 12.0439C114.71 11.152 115.688 10.4879 116.636 10.0514C117.585 9.59598 118.553 9.36827 119.54 9.36827Z" fill="#09152B"/>
<path d="M142.367 9.36827C144.455 9.36827 145.963 9.74779 146.893 10.5068C147.842 11.2659 148.316 12.395 148.316 13.8941C148.335 15.1275 148.079 16.0953 147.548 16.7974C147.016 17.4806 146.172 17.8221 145.014 17.8221H136.931V15.9435H144.388C145.014 15.9435 145.422 15.7348 145.612 15.3173C145.802 14.8808 145.897 14.4064 145.897 13.8941C145.878 13.0022 145.612 12.3665 145.1 11.987C144.588 11.6075 143.715 11.4177 142.481 11.4177C141.475 11.4177 140.678 11.5695 140.09 11.8731C139.521 12.1578 139.113 12.6701 138.866 13.4102C138.639 14.1313 138.525 15.1465 138.525 16.4558C138.525 17.936 138.667 19.0651 138.952 19.8431C139.255 20.6211 139.73 21.1524 140.375 21.4371C141.02 21.7217 141.874 21.864 142.937 21.864C143.677 21.864 144.483 21.8356 145.356 21.7786C146.248 21.7027 147.045 21.6173 147.747 21.5225L148.003 23.1449C147.567 23.3157 147.026 23.458 146.381 23.5719C145.755 23.6857 145.1 23.7711 144.417 23.8281C143.753 23.885 143.155 23.9135 142.624 23.9135C141.03 23.9135 139.749 23.6763 138.781 23.2019C137.813 22.7085 137.101 21.9305 136.646 20.8678C136.21 19.7862 135.991 18.3629 135.991 16.5982C135.991 14.7765 136.21 13.3438 136.646 12.3001C137.101 11.2374 137.794 10.4879 138.724 10.0514C139.673 9.59598 140.887 9.36827 142.367 9.36827Z" fill="#09152B"/>
<path d="M153.841 9.70984L154.155 12.357L154.382 12.784V23.5719H151.963V9.70984H153.841ZM160.644 9.36827L160.36 11.6454H159.563C158.747 11.6454 157.931 11.8162 157.115 12.1578C156.299 12.4804 155.303 12.9453 154.126 13.5525L153.927 12.0439C154.952 11.209 155.976 10.5543 157.001 10.0799C158.045 9.60547 159.05 9.36827 160.018 9.36827H160.644Z" fill="#09152B"/>
<path d="M171.789 3.93161V19.5869C171.789 20.2321 171.941 20.7065 172.245 21.0101C172.567 21.3137 173.051 21.4655 173.696 21.4655H180.784L180.898 23.4011C179.664 23.496 178.402 23.5529 177.112 23.5719C175.841 23.5909 174.569 23.6004 173.298 23.6004C171.856 23.6004 170.831 23.2493 170.224 22.5472C169.617 21.8451 169.313 20.9627 169.313 19.9V3.93161H171.789Z" fill="#09152B"/>
<path d="M189.543 9.36827C191.137 9.36827 192.408 9.60547 193.357 10.0799C194.325 10.5543 195.018 11.3323 195.435 12.4139C195.852 13.4766 196.061 14.8903 196.061 16.6551C196.061 18.4199 195.852 19.8431 195.435 20.9247C195.018 21.9874 194.325 22.7559 193.357 23.2303C192.408 23.7047 191.137 23.9419 189.543 23.9419C187.968 23.9419 186.696 23.7047 185.729 23.2303C184.78 22.7559 184.087 21.9874 183.651 20.9247C183.233 19.8431 183.025 18.4199 183.025 16.6551C183.025 14.8903 183.233 13.4766 183.651 12.4139C184.087 11.3323 184.78 10.5543 185.729 10.0799C186.696 9.60547 187.968 9.36827 189.543 9.36827ZM189.543 11.4177C188.537 11.4177 187.74 11.579 187.152 11.9016C186.583 12.2052 186.175 12.7365 185.928 13.4956C185.681 14.2546 185.558 15.3078 185.558 16.6551C185.558 18.0024 185.681 19.0556 185.928 19.8146C186.175 20.5737 186.583 21.1145 187.152 21.4371C187.74 21.7407 188.537 21.8925 189.543 21.8925C190.549 21.8925 191.346 21.7407 191.934 21.4371C192.522 21.1145 192.94 20.5737 193.186 19.8146C193.433 19.0556 193.556 18.0024 193.556 16.6551C193.556 15.3078 193.433 14.2546 193.186 13.4956C192.94 12.7365 192.522 12.2052 191.934 11.9016C191.346 11.579 190.549 11.4177 189.543 11.4177Z" fill="#09152B"/>
<path d="M205.351 9.36827C206.831 9.36827 207.998 9.52008 208.852 9.8237C209.725 10.1273 210.341 10.6017 210.702 11.2469C211.082 11.8921 211.271 12.7365 211.271 13.7802C211.271 14.7859 211.082 15.6209 210.702 16.2851C210.341 16.9302 209.725 17.4141 208.852 17.7367C207.979 18.0404 206.802 18.1922 205.322 18.1922C203.842 18.1922 202.666 18.0404 201.793 17.7367C200.939 17.4141 200.322 16.9302 199.943 16.2851C199.582 15.6399 199.402 14.8144 199.402 13.8087C199.402 12.765 199.582 11.9206 199.943 11.2754C200.322 10.6112 200.948 10.1273 201.821 9.8237C202.694 9.52008 203.871 9.36827 205.351 9.36827ZM205.322 11.2184C203.937 11.2184 202.969 11.4177 202.419 11.8162C201.888 12.1957 201.622 12.8504 201.622 13.7802C201.622 14.6911 201.888 15.3457 202.419 15.7442C202.969 16.1427 203.937 16.342 205.322 16.342C206.727 16.342 207.694 16.1427 208.226 15.7442C208.757 15.3457 209.023 14.6911 209.023 13.7802C209.023 12.8504 208.757 12.1957 208.226 11.8162C207.694 11.4177 206.727 11.2184 205.322 11.2184ZM212.894 9.70984L212.751 11.0477L209.222 11.3323L208.226 9.70984H212.894ZM201.423 17.2813L202.817 17.4806C202.495 17.7652 202.277 18.1163 202.163 18.5337C202.049 18.9322 202.077 19.3023 202.248 19.6438C202.438 19.9854 202.827 20.2036 203.415 20.2985L208.596 21.124C209.905 21.3137 210.816 21.7217 211.328 22.3479C211.841 22.9741 212.097 23.866 212.097 25.0236C212.097 26.1052 211.888 26.9591 211.471 27.5853C211.072 28.2116 210.389 28.6575 209.421 28.9232C208.453 29.1888 207.144 29.3217 205.493 29.3217C204.241 29.3217 203.187 29.2457 202.334 29.0939C201.48 28.9611 200.787 28.7239 200.256 28.3823C199.743 28.0597 199.373 27.6328 199.146 27.1014C198.918 26.5701 198.804 25.906 198.804 25.109C198.804 24.5017 198.889 23.9894 199.06 23.5719C199.25 23.1734 199.535 22.8128 199.914 22.4903C200.313 22.1677 200.825 21.8546 201.451 21.5509L203.159 20.6116L204.269 21.0101L202.874 22.0633C202.495 22.3479 202.172 22.6326 201.907 22.9172C201.66 23.1829 201.47 23.4675 201.337 23.7711C201.223 24.0937 201.167 24.4733 201.167 24.9097C201.167 25.5549 201.29 26.0483 201.537 26.3898C201.783 26.7314 202.22 26.9591 202.846 27.073C203.472 27.2058 204.345 27.2722 205.465 27.2722C206.584 27.2722 207.448 27.2058 208.055 27.073C208.681 26.9402 209.118 26.7029 209.364 26.3614C209.611 26.0198 209.734 25.5359 209.734 24.9097C209.734 24.4353 209.668 24.0748 209.535 23.8281C209.421 23.5814 209.193 23.3916 208.852 23.2588C208.51 23.126 208.007 23.0121 207.343 22.9172L202.362 22.2341C201.774 22.1582 201.299 21.9684 200.939 21.6648C200.597 21.3612 200.36 21.0006 200.227 20.5832C200.094 20.1657 200.056 19.7482 200.113 19.3307C200.17 18.8943 200.313 18.4958 200.54 18.1352C200.768 17.7557 201.062 17.4711 201.423 17.2813Z" fill="#09152B"/>
<path d="M221.482 9.36827C223.076 9.36827 224.347 9.60547 225.296 10.0799C226.264 10.5543 226.956 11.3323 227.374 12.4139C227.791 13.4766 228 14.8903 228 16.6551C228 18.4199 227.791 19.8431 227.374 20.9247C226.956 21.9874 226.264 22.7559 225.296 23.2303C224.347 23.7047 223.076 23.9419 221.482 23.9419C219.907 23.9419 218.635 23.7047 217.668 23.2303C216.719 22.7559 216.026 21.9874 215.59 20.9247C215.172 19.8431 214.963 18.4199 214.963 16.6551C214.963 14.8903 215.172 13.4766 215.59 12.4139C216.026 11.3323 216.719 10.5543 217.668 10.0799C218.635 9.60547 219.907 9.36827 221.482 9.36827ZM221.482 11.4177C220.476 11.4177 219.679 11.579 219.091 11.9016C218.521 12.2052 218.113 12.7365 217.867 13.4956C217.62 14.2546 217.497 15.3078 217.497 16.6551C217.497 18.0024 217.62 19.0556 217.867 19.8146C218.113 20.5737 218.521 21.1145 219.091 21.4371C219.679 21.7407 220.476 21.8925 221.482 21.8925C222.487 21.8925 223.284 21.7407 223.873 21.4371C224.461 21.1145 224.878 20.5737 225.125 19.8146C225.372 19.0556 225.495 18.0024 225.495 16.6551C225.495 15.3078 225.372 14.2546 225.125 13.4956C224.878 12.7365 224.461 12.2052 223.873 11.9016C223.284 11.579 222.487 11.4177 221.482 11.4177Z" fill="#09152B"/>
<path d="M10.2635 5.618C10.2635 4.99748 9.80395 4.49443 9.23712 4.49443C8.67028 4.49443 8.21077 4.99748 8.21077 5.618V22.8464C8.21077 23.4669 8.67028 23.97 9.23712 23.97C9.80395 23.97 10.2635 23.4669 10.2635 22.8464V5.618Z" fill="#09152B"/>
<path d="M18.4742 5.618C18.4742 4.99748 18.0147 4.49443 17.4479 4.49443C16.8811 4.49443 16.4215 4.99748 16.4215 5.618V22.8464C16.4215 23.4669 16.8811 23.97 17.4479 23.97C18.0147 23.97 18.4742 23.4669 18.4742 22.8464V5.618Z" fill="#09152B"/>
<path d="M6.15798 8.61324C6.15798 7.99261 5.69846 7.48956 5.13163 7.48956C4.56478 7.48956 4.10528 7.99261 4.10528 8.61324V19.849C4.10528 20.4696 4.56478 20.9726 5.13163 20.9726C5.69846 20.9726 6.15798 20.4696 6.15798 19.849V8.61324Z" fill="#09152B"/>
<path d="M22.5795 8.61324C22.5795 7.99261 22.12 7.48956 21.5532 7.48956C20.9864 7.48956 20.5268 7.99261 20.5268 8.61324V19.849C20.5268 20.4696 20.9864 20.9726 21.5532 20.9726C22.12 20.9726 22.5795 20.4696 22.5795 19.849V8.61324Z" fill="#09152B"/>
<path d="M2.0527 13.1093C2.0527 12.4888 1.59318 11.9857 1.02635 11.9857C0.459513 11.9857 0 12.4888 0 13.1093V15.3564C0 15.977 0.459513 16.48 1.02635 16.48C1.59318 16.48 2.0527 15.977 2.0527 15.3564V13.1093Z" fill="#09152B"/>
<path d="M26.6852 13.1093C26.6852 12.4888 26.2257 11.9857 25.6589 11.9857C25.0921 11.9857 24.6325 12.4888 24.6325 13.1093V15.3564C24.6325 15.977 25.0921 16.48 25.6589 16.48C26.2257 16.48 26.6852 15.977 26.6852 15.3564V13.1093Z" fill="#09152B"/>
<path d="M14.369 1.12359C14.369 0.50305 13.9094 0 13.3426 0C12.7758 0 12.3163 0.50305 12.3163 1.12359V27.3406C12.3163 27.9611 12.7758 28.4642 13.3426 28.4642C13.9094 28.4642 14.369 27.9611 14.369 27.3406V1.12359Z" fill="#09152B"/>
</svg>
