<!-- Generated by IcoMoon.io -->
<svg version="1.1" xmlns="http://www.w3.org/2000/svg" width="32" height="32" viewBox="0 0 32 32">
<title>high-insertImage</title>
<path fill="#3f5d75" d="M25.51 2h-19c0 0 0 0 0 0-2.487 0-4.504 2.014-4.51 4.499v15.001c0.006 2.48 2.011 4.489 4.489 4.5h19.001c0 0 0 0 0 0 2.477 0 4.487-1.996 4.51-4.468v-15.032c-0.006-2.479-2.011-4.489-4.489-4.5h-0.001zM27 21.53c0 0.828-0.672 1.5-1.5 1.5v0h-19c-0.828 0-1.5-0.672-1.5-1.5v0-15.030c0 0 0-0 0-0 0-0.825 0.666-1.494 1.489-1.5h19.001c0.003-0 0.006-0 0.010-0 0.828 0 1.5 0.672 1.5 1.5 0 0 0 0 0 0v0z"></path>
<path fill="#3f5d75" d="M24.060 10.11c-0.16-0.064-0.346-0.101-0.541-0.101-0.444 0-0.843 0.193-1.118 0.5l-0.001 0.001-6 7c-0.094 0.106-0.231 0.173-0.383 0.173-0.083 0-0.161-0.020-0.23-0.055l0.003 0.001-3-3.3c-0.25-0.197-0.57-0.317-0.918-0.317-0.078 0-0.155 0.006-0.23 0.018l0.008-0.001c-0.412 0.050-0.765 0.265-0.997 0.576l-0.003 0.004-3.38 4c-0.183 0.246-0.293 0.555-0.293 0.89 0 0.828 0.672 1.5 1.5 1.5 0.004 0 0.009-0 0.013-0h14.999c0.828 0 1.5-0.672 1.5-1.5v0-8c0-0.003 0-0.006 0-0.009 0-0.621-0.38-1.153-0.92-1.377l-0.010-0.004z"></path>
<path fill="#3f5d75" d="M10.99 9.010c0 1.105-0.895 2-2 2s-2-0.895-2-2c0-1.105 0.895-2 2-2s2 0.895 2 2z"></path>
</svg>
