<?xml version="1.0" encoding="UTF-8"?>
<svg width="26px" height="26px" viewBox="0 0 26 26" version="1.1" xmlns="http://www.w3.org/2000/svg" xmlns:xlink="http://www.w3.org/1999/xlink">
  <!-- Generator: Sketch 45.1 (43504) - http://www.bohemiancoding.com/sketch -->
  <title>edited-richText</title>
  <desc>Created with Sketch.</desc>
  <defs></defs>
  <g id="Page-1" stroke="none" stroke-width="1" fill="none" fill-rule="evenodd">
    <g id="high-richText" fill-rule="nonzero" fill="#3F5D75">
      <path d="M1.16,13.93 C1.262,13.968 1.38,13.991 1.503,13.991 C1.93,13.991 2.294,13.724 2.438,13.347 L2.44,13.34 L3.31,11 L8.67,11 L9.57,13.36 C9.717,13.74 10.08,14.005 10.505,14.005 C11.057,14.005 11.505,13.557 11.505,13.005 C11.505,12.877 11.481,12.755 11.438,12.643 L11.44,12.65 L6.85,0.64 C6.814,0.572 6.774,0.513 6.729,0.458 L6.73,0.46 C6.698,0.407 6.665,0.361 6.629,0.319 L6.63,0.32 C6.589,0.285 6.543,0.252 6.495,0.223 L6.49,0.22 C6.435,0.175 6.372,0.135 6.306,0.103 L6.3,0.1 C6.279,0.098 6.255,0.097 6.23,0.097 C6.205,0.097 6.181,0.098 6.157,0.1 L6.16,0.1 C6.129,0.096 6.092,0.094 6.055,0.094 C6.018,0.094 5.982,0.096 5.946,0.1 L5.95,0.1 C5.919,0.096 5.882,0.094 5.845,0.094 C5.808,0.094 5.772,0.096 5.736,0.1 L5.74,0.1 C5.719,0.098 5.695,0.097 5.67,0.097 C5.645,0.097 5.621,0.098 5.597,0.1 L5.6,0.1 C5.535,0.133 5.48,0.17 5.428,0.212 L5.43,0.211 C5.373,0.245 5.324,0.282 5.279,0.322 L5.28,0.321 C5.249,0.359 5.219,0.402 5.193,0.446 L5.19,0.451 C5.118,0.504 5.056,0.563 5.001,0.629 L5,0.631 L0.59,12.631 C0.546,12.74 0.52,12.866 0.52,12.998 C0.52,13.421 0.782,13.782 1.153,13.929 L1.16,13.931 L1.16,13.93 Z M5.94,3.85 L7.94,9 L4,9 L5.94,3.85 Z" id="Shape"></path>
      <path d="M14.5,0 L24.5,0 C25.052,0 25.5,0.448 25.5,1 C25.5,1.552 25.052,2 24.5,2 L14.5,2 C13.948,2 13.5,1.552 13.5,1 C13.5,0.448 13.948,0 14.5,0 Z" id="Shape"></path>
      <path d="M14.5,6 L24.5,6 C25.052,6 25.5,6.448 25.5,7 C25.5,7.552 25.052,8 24.5,8 L14.5,8 C13.948,8 13.5,7.552 13.5,7 C13.5,6.448 13.948,6 14.5,6 Z" id="Shape"></path>
      <path d="M14.5,12 L24.5,12 C25.052,12 25.5,12.448 25.5,13 C25.5,13.552 25.052,14 24.5,14 L14.5,14 C13.948,14 13.5,13.552 13.5,13 C13.5,12.448 13.948,12 14.5,12 Z" id="Shape"></path>
      <path d="M1.5,18 L24.5,18 C25.052,18 25.5,18.448 25.5,19 C25.5,19.552 25.052,20 24.5,20 L1.5,20 C0.948,20 0.5,19.552 0.5,19 C0.5,18.448 0.948,18 1.5,18 Z" id="Shape"></path>
      <path d="M1.5,24 L24.5,24 C25.052,24 25.5,24.448 25.5,25 C25.5,25.552 25.052,26 24.5,26 L1.5,26 C0.948,26 0.5,25.552 0.5,25 C0.5,24.448 0.948,24 1.5,24 Z" id="Shape"></path>
    </g>
  </g>
</svg>
