<svg width="32" height="32" viewBox="0 0 32 32" fill="none" xmlns="http://www.w3.org/2000/svg">
<g clip-path="url(#clip0_12_2537)">
<path d="M27.2649 15.6798C27.2649 9.46654 22.2274 4.42905 16.0141 4.42905C9.80081 4.42905 4.76333 9.46654 4.76333 15.6798C4.76333 21.8931 9.80081 26.9306 16.0141 26.9306C22.2253 26.9244 27.2587 21.891 27.2649 15.6809V15.6798ZM17.1423 8.93143V15.6798H21.6447C22.2191 15.7367 22.6652 16.218 22.6652 16.8028C22.6652 17.3876 22.2201 17.8689 21.6498 17.9258H16.0141C15.391 17.9258 14.8859 17.4207 14.8859 16.7977V8.93143C14.9428 8.35699 15.4241 7.91089 16.0089 7.91089C16.5937 7.91089 17.075 8.35595 17.1319 8.92625V8.93143H17.1423ZM24.7704 1.25151C24.521 1.09833 24.2188 1.00725 23.8958 1.00725C23.2872 1.00725 22.7532 1.33017 22.4561 1.81353L22.452 1.82078C22.2998 2.06919 22.2087 2.37038 22.2087 2.69227C22.2087 3.29673 22.5265 3.82667 23.0036 4.12475L23.0109 4.12889C25.6533 5.75389 27.6633 8.18931 28.7149 11.0833L28.745 11.1774C28.9996 11.8057 29.6051 12.2415 30.313 12.2415C31.2446 12.2415 32.0001 11.4859 32.0001 10.5544C32.0001 10.3743 31.9722 10.2004 31.9194 10.0368L31.9225 10.0493C30.5718 6.32005 28.066 3.28224 24.8429 1.29291L24.7704 1.25048V1.25151ZM9.0173 4.12889C9.50894 3.8277 9.83083 3.29466 9.83083 2.68503C9.83083 2.3621 9.73975 2.05987 9.58242 1.80318L9.58656 1.81043C9.2833 1.32086 8.74922 1 8.13959 1C7.8177 1 7.51651 1.09005 7.26085 1.2453L7.2681 1.24116C3.96221 3.27396 1.44813 6.32005 0.132606 9.94162L0.0953448 10.0596C0.0353131 10.2263 0.00012207 10.4177 0.00012207 10.6185C0.00012207 11.5511 0.756729 12.3077 1.68929 12.3077C2.42209 12.3077 3.04518 11.8409 3.2791 11.1888L3.28323 11.1774C4.36484 8.18931 6.37487 5.75389 8.9583 4.16201L9.0173 4.12889ZM27.0889 26.7443C26.8053 26.1864 26.235 25.8107 25.5778 25.8107C24.6452 25.8107 23.8886 26.5673 23.8886 27.4999C23.8886 27.7752 23.9548 28.035 24.0718 28.2647L24.0677 28.2554L25.1958 30.4497C25.4794 31.0076 26.0497 31.3833 26.707 31.3833C27.6395 31.3833 28.3962 30.6267 28.3962 29.6941C28.3962 29.4188 28.3299 29.159 28.2129 28.9292L28.2171 28.9385L27.0889 26.7443ZM7.206 25.9887C6.98553 25.8759 6.72471 25.8097 6.44939 25.8097C5.79215 25.8097 5.22184 26.1854 4.94342 26.735L4.93928 26.7443L3.8111 28.9903C3.74796 29.1611 3.7107 29.3577 3.7107 29.5637C3.7107 30.4952 4.46627 31.2508 5.3978 31.2508C6.00122 31.2508 6.53116 30.9341 6.82925 30.4569L6.83339 30.4497L7.96157 28.2037C8.06197 27.9946 8.12096 27.7483 8.12096 27.4885C8.12096 26.8385 7.75353 26.2754 7.21531 25.9929L7.206 25.9887Z" fill="#7C98B6"/>
</g>
<defs>
<clipPath id="clip0_12_2537">
<rect width="32" height="32" fill="white"/>
</clipPath>
</defs>
</svg>
