<!-- Generated by IcoMoon.io -->
<svg version="1.1" xmlns="http://www.w3.org/2000/svg" width="32" height="32" viewBox="0 0 32 32">
<title>high-header</title>
<path fill="#3f5d75" d="M9.71 27.2c1.044 0 1.89-0.846 1.89-1.89v-9.42h8.8v9.43c-0.003 0.041-0.005 0.089-0.005 0.137 0 1.044 0.846 1.89 1.89 1.89s1.89-0.846 1.89-1.89c0-0.048-0.002-0.096-0.005-0.144l0-22.624c0.003-0.041 0.005-0.089 0.005-0.137 0-1.044-0.846-1.89-1.89-1.89s-1.89 0.846-1.89 1.89c0 0.048 0.002 0.096 0.005 0.144l-0 9.424h-8.8v-9.43c0.003-0.041 0.005-0.089 0.005-0.137 0-1.044-0.846-1.89-1.89-1.89s-1.89 0.846-1.89 1.89c0 0.048 0.002 0.096 0.005 0.144l-0 22.614c0 0 0 0 0 0 0 1.040 0.841 1.884 1.879 1.89z"></path>
</svg>
