<svg id="Layer_1" data-name="Layer 1" xmlns="http://www.w3.org/2000/svg" viewBox="0 0 32 32"><defs><style>.cls-1{fill:#3f5d75;}</style></defs><title>content3</title><path class="cls-1" d="M27.38,15.12a24.12,24.12,0,0,0-3.64,2.13c-.1.14.26.51.77.91C23,20,21,22.49,18.23,23.39c-.05-1.12-.43-6.95-.71-11.19h2.85a1.69,1.69,0,0,0,1.36.67,1.76,1.76,0,0,0,0-3.51,1.72,1.72,0,0,0-1.36.67h-3c0-.42-.06-.81-.08-1.14a3.84,3.84,0,1,0-2.95.1c0,.33,0,.67,0,1H11.38A1.72,1.72,0,0,0,10,9.36a1.76,1.76,0,0,0,0,3.51,1.69,1.69,0,0,0,1.36-.67h2.85c-.2,4.31-.54,9.75-.61,11.06-1.91-.68-4-2.2-6.37-4.92.64-.47,1.12-.92,1-1.09a24.12,24.12,0,0,0-3.64-2.13c-.34-.16-.59,0-.55.77a25.29,25.29,0,0,0,.4,3.8c.08.16.6,0,1.24-.38,7.53,10.77,12.53,11.28,20.34-.13.73.41,1.39.68,1.48.51a25.29,25.29,0,0,0,.4-3.8C28,15.08,27.72,15,27.38,15.12Zm-11.66-8a1.81,1.81,0,1,1,1.82-1.81A1.82,1.82,0,0,1,15.72,7.1Z"/></svg>
