<svg width="47px" height="21px" viewBox="0 0 47 21" version="1.1" xmlns="http://www.w3.org/2000/svg" xmlns:xlink="http://www.w3.org/1999/xlink">
    <title>Anchor tag</title>
    <g id="Anchors" stroke="none" stroke-width="1" fill="none" fill-rule="evenodd">
        <g id="1.0-Insert_Anchor-Copy-2" transform="translate(-936.000000, -549.000000)">
            <g id="Anchor" transform="translate(936.000000, 549.000000)">
                <path d="M5.5,0 L32.1725111,0 C33.4203005,-6.88662651e-15 34.6310045,0.424294276 35.6058203,1.20321186 L46.0699766,9.5645 L46.0699766,9.5645 L35.6692962,18.9359919 C34.6590718,19.8462506 33.3474545,20.35 31.9876294,20.35 L5.5,20.35 C2.46243388,20.35 1.26017298e-15,17.8875661 0,14.85 L0,5.5 C-3.71994563e-16,2.46243388 2.46243388,5.57991845e-16 5.5,0 Z" id="Rectangle-Copy" fill="#00A4BD" transform="translate(23.034988, 10.175000) rotate(-180.000000) translate(-23.034988, -10.175000) "></path>
                <g id="high-anchor" transform="translate(16.500000, 3.575000)" fill="#FFFFFF" fill-rule="nonzero">
                    <path d="M11.4302222,6.90311111 C10.8077703,7.19759745 10.2123095,7.54604018 9.65066667,7.94444444 C9.60177778,8.01288889 9.77777778,8.19377778 10.0271111,8.38933333 C9.28888889,9.28888889 8.31111111,10.5062222 6.95688889,10.9462222 C6.93244444,10.3986667 6.74666667,7.54844444 6.60977778,5.47555556 L8.00311111,5.47555556 C8.1605855,5.68360315 8.40708187,5.80503886 8.668,5.80311111 C9.11679026,5.76921 9.46363208,5.39517997 9.46363208,4.94511111 C9.46363208,4.49504225 9.11679026,4.12101222 8.668,4.08711111 C8.40760898,4.08746164 8.16207065,4.20842538 8.00311111,4.41466667 L6.53644444,4.41466667 C6.53644444,4.20933333 6.50711111,4.01866667 6.49733333,3.85733333 C7.31146026,3.48555965 7.74994019,2.59077392 7.54491732,1.71957707 C7.33989445,0.848380225 6.54838598,0.243053467 5.65390348,0.273374908 C4.75942099,0.303696348 4.01072145,0.961233547 3.86516563,1.84431442 C3.71960981,2.72739529 4.21767699,3.59043366 5.05511111,3.90622222 C5.05511111,4.06755556 5.05511111,4.23377778 5.05511111,4.39511111 L3.608,4.39511111 C3.44297801,4.19345949 3.1937959,4.07970244 2.93333333,4.08711111 C2.48454308,4.12101222 2.13770125,4.49504225 2.13770125,4.94511111 C2.13770125,5.39517997 2.48454308,5.76921 2.93333333,5.80311111 C3.19425146,5.80503886 3.44074783,5.68360315 3.59822222,5.47555556 L4.99155556,5.47555556 C4.89377778,7.58266667 4.72755556,10.2422222 4.69333333,10.8826667 C3.75955556,10.5502222 2.73777778,9.80711111 1.57911111,8.47733333 C1.892,8.24755556 2.12666667,8.02755556 2.068,7.94444444 C1.50635719,7.54604018 0.910896376,7.19759745 0.288444444,6.90311111 C0.122222222,6.82488889 -1.3079815e-15,6.90311111 0.0195555556,7.27955556 C0.0377994743,7.90286015 0.103171193,8.52389147 0.215111111,9.13733333 C0.254222222,9.21555556 0.508444444,9.13733333 0.821333333,8.95155556 C4.50266667,14.2168889 6.94711111,14.4662222 10.7653333,8.888 C11.1222222,9.08844444 11.4448889,9.22044444 11.4888889,9.13733333 C11.6008288,8.52389147 11.6662005,7.90286015 11.6844444,7.27955556 C11.7333333,6.88355556 11.5964444,6.84444444 11.4302222,6.90311111 Z M5.72977778,2.992 C5.24171264,2.98930347 4.84798855,2.59193914 4.84977765,2.10386985 C4.85157897,1.61580056 5.24821553,1.22134333 5.7362873,1.2222357 C6.22435907,1.22313109 6.61955556,1.61903852 6.61955556,2.10711111 C6.61154886,2.59278465 6.2155173,2.98228822 5.72977778,2.98222222 L5.72977778,2.992 Z" id="Shape"></path>
                </g>
                <g id="GrippiesCopy4" transform="translate(36.300000, 6.875000)" fill="#FFFFFF">
                    <rect id="Rectangle693" x="0" y="0" width="1.32" height="1.32"></rect>
                    <rect id="Rectangle693Copy3" x="0" y="5.28" width="1.32" height="1.32"></rect>
                    <rect id="Rectangle693Copy" x="0" y="2.64" width="1.32" height="1.32"></rect>
                    <rect id="Rectangle693" x="1.98" y="0" width="1.32" height="1.32"></rect>
                    <rect id="Rectangle693Copy5" x="1.98" y="5.28" width="1.32" height="1.32"></rect>
                    <rect id="Rectangle693Copy2" x="1.98" y="2.64" width="1.32" height="1.32"></rect>
                </g>
            </g>
        </g>
    </g>
</svg>
