<?xml version="1.0" encoding="UTF-8"?>
<svg width="40px" height="28px" viewBox="0 0 40 28" version="1.1" xmlns="http://www.w3.org/2000/svg" xmlns:xlink="http://www.w3.org/1999/xlink">
    <!-- Generator: Sketch 45.1 (43504) - http://www.bohemiancoding.com/sketch -->
    <title>Untitled 2</title>
    <desc>Created with Sketch.</desc>
    <defs></defs>
    <g id="Page-1" stroke="none" stroke-width="1" fill="none" fill-rule="evenodd">
        <g id="high-ctas" fill-rule="nonzero" fill="#3F5D75">
            <path d="M39,18.42 L30.33,8.75 C30.203,8.605 30.017,8.514 29.81,8.514 C29.429,8.514 29.12,8.823 29.12,9.204 C29.12,9.206 29.12,9.209 29.12,9.211 L29.12,9.211 L29.12,22.211 C29.12,22.213 29.12,22.215 29.12,22.218 C29.12,22.599 29.429,22.908 29.81,22.908 C29.9,22.908 29.986,22.891 30.065,22.859 L30.06,22.861 L32.89,21.781 L34.89,27.011 C34.991,27.275 35.242,27.459 35.536,27.459 C35.627,27.459 35.715,27.441 35.794,27.409 L35.789,27.411 L37.519,26.751 C37.783,26.65 37.967,26.399 37.967,26.105 C37.967,26.014 37.949,25.926 37.917,25.847 L37.919,25.852 L35.919,20.622 L38.749,19.542 C39.009,19.439 39.19,19.19 39.19,18.899 C39.19,18.714 39.117,18.546 38.999,18.422 L38.999,18.422 L39,18.42 Z" id="Shape"></path>
            <path d="M26.74,9.21 C26.74,9.208 26.74,9.205 26.74,9.202 C26.74,7.495 28.123,6.112 29.83,6.112 C30.747,6.112 31.571,6.512 32.137,7.147 L32.14,7.15 L35.93,11.38 L35.93,4.94 C35.924,2.518 33.962,0.556 31.541,0.55 L5.19,0.55 C2.768,0.556 0.806,2.518 0.8,4.939 L0.8,12.15 C0.806,14.572 2.768,16.534 5.189,16.54 L26.73,16.54 L26.74,9.21 Z" id="Shape"></path>
        </g>
    </g>
</svg>
